<svg version="1.1" id="Layer_1" xmlns="http://www.w3.org/2000/svg" xmlns:xlink="http://www.w3.org/1999/xlink" x="0px" y="0px"
	 viewBox="0 0 328.2 328.2" style="enable-background:new 0 0 328.2 328.2;" xml:space="preserve">
<style type="text/css">
	.st0{fill:#fff;}
	.st1{fill:#fff;}
</style>
<g>
	<path class="st0" d="M128,53.4c-4.1,4.5-2.4,14.4-3.3,21.9c0,0.3,0.1,0.6,0,0.8c-1.1,1.9-1.8,4.5-3.5,5.5
		c-6.1,3.4-7.4,8.6-7.3,15.1c1,67.2,1.7,134.5,3,201.7c0.1,4.6,3.3,11.1,7,13.3c24.4,14.3,50.3,15.2,76.3,4.6
		c7.6-3.1,11.2-9.6,10.8-18.3c-0.4-9.2,0-18.4,0.1-27.7c0.8-58,1.7-116,2.2-174c0-4.3-1.8-10.4-5-12.6c-4.8-3.4-6-6.8-5.6-12
		c0.3-4-0.3-8.2,0.1-12.2c0.5-4.8-1.8-7-6.1-7.7c-5-0.8-10.1-1.7-15.4-2.6c-2.5-0.4-4.5-2.4-4.8-5c-0.4-2.8-0.8-5.6-1.5-8.3
		c-0.2-0.6-0.3-1.2-0.4-1.9c0-0.2-0.1-0.4-0.1-0.6c-0.1-0.4-0.2-0.8-0.2-1.3c0-0.3-0.1-0.5-0.1-0.8c-0.1-0.4-0.1-0.8-0.2-1.2
		c0-0.3-0.1-0.6-0.1-0.9c0-0.3-0.1-0.7-0.1-1c0-0.4-0.1-0.7-0.1-1.1c0-0.3-0.1-0.6-0.1-0.9c0-0.5-0.1-1-0.1-1.5c0-0.1,0-0.3,0-0.4
		c-0.1-0.6-0.1-1.3-0.2-1.9c0-0.3-0.1-0.6-0.1-0.8c0-0.4-0.1-0.8-0.1-1.1c0-0.3-0.1-0.6-0.1-0.9c0-0.4-0.1-0.7-0.1-1.1
		c0-0.3-0.1-0.6-0.1-0.9c0-0.4-0.1-0.7-0.1-1.1c0-0.3-0.1-0.6-0.1-0.9c-0.1-0.3-0.1-0.7-0.2-1c-0.1-0.3-0.1-0.6-0.2-0.9
		c-0.1-0.3-0.1-0.7-0.2-1c-0.1-0.3-0.2-0.6-0.2-0.9c-0.1-0.3-0.2-0.7-0.3-1c-0.1-0.3-0.2-0.6-0.3-0.8c-0.1-0.3-0.2-0.6-0.3-1
		c-0.1-0.3-0.2-0.6-0.3-0.8c-0.1-0.3-0.2-0.6-0.4-0.9c-0.1-0.3-0.3-0.5-0.4-0.8c-0.2-0.3-0.3-0.7-0.5-1c-9.4,1.8-2.5,0.5-11.9,2.3
		c-2,12.2-4,24.4-6,36.2c-0.3,1.9-1.6,3.5-3.3,4.3c-0.6,0.3-1.2,0.4-1.8,0.5C138.8,49.7,131.4,49.7,128,53.4z M131.2,218.9
		c-0.8-14.8-1.2-29.6-1.1-44.4c0-7.5,11.3-7.8,11.7-0.3c0.8,14.8,1.1,29.6,1.1,44.4C142.8,226.1,131.6,226.4,131.2,218.9z"/>
</g>
<g>
	<path class="st1" d="M13.9,158.7c22.6,0,25.8-12.4,25.8-23.5c0-8.9-1.3-17.8-2.5-26.7c-1.3-8.9-2.5-17.5-2.5-26.4
		c0-29.3,19.1-41.7,46.1-41.7h6.7v17.5h-5.7c-18.8,0-25.1,10.2-25.1,27.4c0,7.3,1,14.9,2.2,22.6c1.3,8,2.2,15.6,2.2,24.2
		c0.3,20.4-8.6,30.5-22.9,34.3v0.6c14.3,3.5,23.2,14.3,22.9,34.7c0,8.6-1,16.5-2.2,24.2c-1.3,8-2.2,15.3-2.2,22.9
		c0,17.8,7.3,27.7,25.1,27.7h5.7v17.5h-6.7c-26.4,0-46.1-11.4-46.1-43.6c0-8.6,1.3-17.5,2.5-26.1c1.3-8.6,2.5-17.2,2.5-25.8
		c0-9.9-3.2-23.5-25.8-23.5V158.7z"/>
	<path class="st1" d="M311.6,174.9c-22.6,0-25.8,13.7-25.8,23.5c0,8.6,1.3,17.2,2.5,25.8s2.5,17.5,2.5,26.1
		c0,32.1-20,43.6-46.1,43.6h-6.7v-17.5h5.4c17.8-0.3,25.4-9.9,25.4-27.7c0-7.6-1.3-14.9-2.2-22.9c-1.3-7.6-2.5-15.6-2.5-24.2
		c0-20.4,8.9-31.2,22.9-34.7v-0.6c-14-3.8-22.9-14-22.9-34.3c0-8.6,1.3-16.2,2.5-24.2c1-7.6,2.2-15.3,2.2-22.6
		c0-17.2-6.7-27-25.1-27.4h-5.7V40.4h6.4c27,0,46.4,12.4,46.4,41.7c0,8.9-1.3,17.5-2.5,26.4s-2.5,17.8-2.5,26.7
		c0,11.1,3.2,23.5,25.8,23.5V174.9z"/>
</g>
</svg>
